<?xml version="1.0" encoding="utf-8"?>
<!-- Generator: Adobe Illustrator 26.0.1, SVG Export Plug-In . SVG Version: 6.00 Build 0)  -->
<svg version="1.1" id="Layer_1" xmlns="http://www.w3.org/2000/svg" xmlns:xlink="http://www.w3.org/1999/xlink" x="0px" y="0px"
	 viewBox="0 0 264 280" style="enable-background:new 0 0 264 280;" xml:space="preserve">
<style type="text/css">
	.st0{fill-rule:evenodd;clip-rule:evenodd;fill:#E6E6E6;}
	.st1{filter:url(#Adobe_OpacityMaskFilter);}
	.st2{fill-rule:evenodd;clip-rule:evenodd;fill:#FFFFFF;}
	.st3{mask:url(#mask-2_00000124851514818028523630000000895739481337437084_);}
	.st4{fill-rule:evenodd;clip-rule:evenodd;fill:#65C9FF;}
	.st5{filter:url(#Adobe_OpacityMaskFilter_00000111898389704417616580000001466336109438553218_);}
	.st6{mask:url(#mask-4_00000168817635860275586240000010804503410815002265_);}
	.st7{fill-rule:evenodd;clip-rule:evenodd;fill:#D0C6AC;}
	.st8{filter:url(#Adobe_OpacityMaskFilter_00000107569170751540915710000003866983762867082377_);}
	.st9{mask:url(#mask-6_00000031900408319763546680000002907075928106849671_);}
	.st10{fill-rule:evenodd;clip-rule:evenodd;fill:#EDB98A;}
	.st11{filter:url(#Adobe_OpacityMaskFilter_00000111905468354920572160000007394533280178456718_);}
	
		.st12{mask:url(#mask-6_00000047031120234306207640000011313775444966009525_);fill-rule:evenodd;clip-rule:evenodd;fill-opacity:0.1;}
	.st13{fill-rule:evenodd;clip-rule:evenodd;fill:#B7C1DB;}
	.st14{filter:url(#Adobe_OpacityMaskFilter_00000114779888632174874640000009138390901229853112_);}
	.st15{mask:url(#react-mask-2_00000134961184881500077360000017455196762593501080_);}
	.st16{fill-rule:evenodd;clip-rule:evenodd;fill:#5199E4;}
	.st17{filter:url(#Adobe_OpacityMaskFilter_00000140727503743011746290000011260101670261095335_);}
	
		.st18{mask:url(#react-mask-2_00000083056717663481549400000011453190728283451277_);fill-rule:evenodd;clip-rule:evenodd;fill:#F4F4F4;}
	.st19{filter:url(#Adobe_OpacityMaskFilter_00000023265935808749310260000008016515725616881805_);}
	
		.st20{mask:url(#react-mask-2_00000177454777116576670470000007679880951585795459_);fill-rule:evenodd;clip-rule:evenodd;fill-opacity:0.16;}
	.st21{fill-rule:evenodd;clip-rule:evenodd;fill-opacity:0.7;}
	.st22{filter:url(#Adobe_OpacityMaskFilter_00000160188878374401771540000002318645447704514725_);}
	
		.st23{mask:url(#react-mask-4_00000110468495151601850700000017054356060171645350_);fill-rule:evenodd;clip-rule:evenodd;fill:#FFFFFF;}
	.st24{filter:url(#Adobe_OpacityMaskFilter_00000061454551633203012120000012032379895466276750_);}
	.st25{mask:url(#react-mask-4_00000159433249261665495580000002226976510096754096_);}
	.st26{fill-rule:evenodd;clip-rule:evenodd;fill:#FF4F6D;}
	.st27{fill-rule:evenodd;clip-rule:evenodd;fill-opacity:0.16;}
	.st28{fill-rule:evenodd;clip-rule:evenodd;fill-opacity:0.6;}
	.st29{filter:url(#Adobe_OpacityMaskFilter_00000014597606126022800570000015488372434456470657_);}
	.st30{mask:url(#react-mask-7_00000134936121772316213860000017267676598942702208_);}
	.st31{fill-rule:evenodd;clip-rule:evenodd;fill:#1F3140;}
	.st32{filter:url(#Adobe_OpacityMaskFilter_00000056421896857674511370000008794966391393001091_);}
	.st33{mask:url(#react-mask-6_00000092444133504051909480000008723950350871959177_);}
	.st34{fill-rule:evenodd;clip-rule:evenodd;fill:#4A312C;}
</style>
<desc>Created with getavataaars.com</desc>
<g id="Avataaar_00000088853772987075526420000005987710299763550102_">
	<g id="Avataaar_x2F_Circle" transform="translate(-825.000000, -1100.000000)">
		<g transform="translate(825.000000, 1100.000000)">
			<g id="Circle" transform="translate(12.000000, 40.000000)">
				<g id="Circle-Background">
					<circle id="path-1_00000088843924594603386940000004987255684839775638_" class="st0" cx="120" cy="120" r="120"/>
				</g>
				<defs>
					<filter id="Adobe_OpacityMaskFilter" filterUnits="userSpaceOnUse" x="0" y="0" width="240" height="240">
						<feColorMatrix  type="matrix" values="1 0 0 0 0  0 1 0 0 0  0 0 1 0 0  0 0 0 1 0"/>
					</filter>
				</defs>
				
					<mask maskUnits="userSpaceOnUse" x="0" y="0" width="240" height="240" id="mask-2_00000124851514818028523630000000895739481337437084_">
					<g class="st1">
						<circle id="path-1_00000101094557923360583870000018066145087601693080_" class="st2" cx="120" cy="120" r="120"/>
					</g>
				</mask>
				<g id="Color_x2F_Palette_x2F_Blue-01" class="st3">
					<rect id="_xD83D__xDD8D_Color" class="st4" width="240" height="240"/>
				</g>
			</g>
			<g id="Background-Mask">
			</g>
			<defs>
				
					<filter id="Adobe_OpacityMaskFilter_00000114069666518431039570000015997017408696895898_" filterUnits="userSpaceOnUse" x="-1" y="0" width="265" height="280">
					<feColorMatrix  type="matrix" values="1 0 0 0 0  0 1 0 0 0  0 0 1 0 0  0 0 0 1 0"/>
				</filter>
			</defs>
			
				<mask maskUnits="userSpaceOnUse" x="-1" y="0" width="265" height="280" id="mask-4_00000168817635860275586240000010804503410815002265_">
				<g style="filter:url(#Adobe_OpacityMaskFilter_00000114069666518431039570000015997017408696895898_);">
					<path id="path-3_00000139264245276776304770000014838626544602472870_" class="st2" d="M12,160c0,66.3,53.7,120,120,120
						s120-53.7,120-120h12V0H0v160H12z"/>
				</g>
			</mask>
			<g id="Avataaar" class="st6">
				<g id="Body" transform="translate(32.000000, 36.000000)">
					<g>
						<path id="path-5_00000080914092303044463430000007672023197487874455_" class="st7" d="M124,144.6V163h4l0,0
							c39.8,0,72,32.2,72,72v9H0v-9c0-39.8,32.2-72,72-72l0,0h4v-18.4c-17.2-8.2-29.6-24.9-31.7-44.7C38.5,99.1,34,94.1,34,88V74
							c0-5.9,4.3-10.9,10-11.8V56l0,0c0-30.9,25.1-56,56-56l0,0l0,0c30.9,0,56,25.1,56,56v6.2c5.7,1,10,5.9,10,11.8v14
							c0,6.1-4.5,11.1-10.3,11.9C153.6,119.7,141.2,136.4,124,144.6z"/>
					</g>
					<defs>
						
							<filter id="Adobe_OpacityMaskFilter_00000039811881844387793850000014090676168926749833_" filterUnits="userSpaceOnUse" x="-32" y="0" width="264" height="244">
							<feColorMatrix  type="matrix" values="1 0 0 0 0  0 1 0 0 0  0 0 1 0 0  0 0 0 1 0"/>
						</filter>
					</defs>
					
						<mask maskUnits="userSpaceOnUse" x="-32" y="0" width="264" height="244" id="mask-6_00000031900408319763546680000002907075928106849671_">
						<g style="filter:url(#Adobe_OpacityMaskFilter_00000039811881844387793850000014090676168926749833_);">
							<path id="path-5_00000032633047286729981140000001117055470642666912_" class="st2" d="M124,144.6V163h4l0,0
								c39.8,0,72,32.2,72,72v9H0v-9c0-39.8,32.2-72,72-72l0,0h4v-18.4c-17.2-8.2-29.6-24.9-31.7-44.7C38.5,99.1,34,94.1,34,88V74
								c0-5.9,4.3-10.9,10-11.8V56l0,0c0-30.9,25.1-56,56-56l0,0l0,0c30.9,0,56,25.1,56,56v6.2c5.7,1,10,5.9,10,11.8v14
								c0,6.1-4.5,11.1-10.3,11.9C153.6,119.7,141.2,136.4,124,144.6z"/>
						</g>
					</mask>
					<g id="Skin_x2F__xD83D__xDC76__xD83C__xDFFD_-03-Brown" class="st9">
						<g id="Color" transform="translate(-32.000000, 0.000000)">
							<rect class="st10" width="264" height="244"/>
						</g>
					</g>
					<defs>
						
							<filter id="Adobe_OpacityMaskFilter_00000111903327609757318110000017496005738782781065_" filterUnits="userSpaceOnUse" x="44" y="79" width="112" height="79">
							<feColorMatrix  type="matrix" values="1 0 0 0 0  0 1 0 0 0  0 0 1 0 0  0 0 0 1 0"/>
						</filter>
					</defs>
					
						<mask maskUnits="userSpaceOnUse" x="44" y="79" width="112" height="79" id="mask-6_00000047031120234306207640000011313775444966009525_">
						<g style="filter:url(#Adobe_OpacityMaskFilter_00000111903327609757318110000017496005738782781065_);">
							<path id="path-5_00000101087580391146701570000001176319651378421417_" class="st2" d="M124,144.6V163h4l0,0
								c39.8,0,72,32.2,72,72v9H0v-9c0-39.8,32.2-72,72-72l0,0h4v-18.4c-17.2-8.2-29.6-24.9-31.7-44.7C38.5,99.1,34,94.1,34,88V74
								c0-5.9,4.3-10.9,10-11.8V56l0,0c0-30.9,25.1-56,56-56l0,0l0,0c30.9,0,56,25.1,56,56v6.2c5.7,1,10,5.9,10,11.8v14
								c0,6.1-4.5,11.1-10.3,11.9C153.6,119.7,141.2,136.4,124,144.6z"/>
						</g>
					</mask>
					<path id="Neck-Shadow" class="st12" d="M156,79v23c0,30.9-25.1,56-56,56s-56-25.1-56-56V79v15c0,30.9,25.1,56,56,56
						s56-25.1,56-56V79z"/>
				</g>
				<g id="Clothing_x2F_Hoodie" transform="translate(0.000000, 170.000000)">
					<g id="Hoodie">
						<path id="react-path-1_00000101800815226468836380000016635837416753353099_" class="st13" d="M108,13.1
							c-17.9,2-31.7,7.5-32,21.6C50.1,45.6,32,71.2,32,101l0,0v9h200v-9c0-29.8-18.1-55.4-44-66.4c-0.3-14.1-14.1-19.6-32-21.6V32
							l0,0c0,13.3-10.7,24-24,24l0,0c-13.3,0-24-10.7-24-24V13.1z"/>
					</g>
					<defs>
						
							<filter id="Adobe_OpacityMaskFilter_00000134957426955532648170000003186414814596538284_" filterUnits="userSpaceOnUse" x="0" y="0" width="264" height="110">
							<feColorMatrix  type="matrix" values="1 0 0 0 0  0 1 0 0 0  0 0 1 0 0  0 0 0 1 0"/>
						</filter>
					</defs>
					
						<mask maskUnits="userSpaceOnUse" x="0" y="0" width="264" height="110" id="react-mask-2_00000134961184881500077360000017455196762593501080_">
						<g style="filter:url(#Adobe_OpacityMaskFilter_00000134957426955532648170000003186414814596538284_);">
							<path id="react-path-1_00000072242427823929701110000001652357042030676634_" class="st2" d="M108,13.1
								c-17.9,2-31.7,7.5-32,21.6C50.1,45.6,32,71.2,32,101l0,0v9h200v-9c0-29.8-18.1-55.4-44-66.4c-0.3-14.1-14.1-19.6-32-21.6V32
								l0,0c0,13.3-10.7,24-24,24l0,0c-13.3,0-24-10.7-24-24V13.1z"/>
						</g>
					</mask>
					<g id="Color_x2F_Palette_x2F_Gray-01" class="st15">
						<rect id="_xD83D__xDD8D_Color_00000141437035494089678300000017335507083058440880_" class="st16" width="264" height="110"/>
					</g>
					<defs>
						
							<filter id="Adobe_OpacityMaskFilter_00000093142760058177528950000013953168291868051134_" filterUnits="userSpaceOnUse" x="95" y="58.2" width="74" height="51.8">
							<feColorMatrix  type="matrix" values="1 0 0 0 0  0 1 0 0 0  0 0 1 0 0  0 0 0 1 0"/>
						</filter>
					</defs>
					
						<mask maskUnits="userSpaceOnUse" x="95" y="58.2" width="74" height="51.8" id="react-mask-2_00000083056717663481549400000011453190728283451277_">
						<g style="filter:url(#Adobe_OpacityMaskFilter_00000093142760058177528950000013953168291868051134_);">
							<path id="react-path-1_00000046319890190402276860000006765321183596260523_" class="st2" d="M108,13.1
								c-17.9,2-31.7,7.5-32,21.6C50.1,45.6,32,71.2,32,101l0,0v9h200v-9c0-29.8-18.1-55.4-44-66.4c-0.3-14.1-14.1-19.6-32-21.6V32
								l0,0c0,13.3-10.7,24-24,24l0,0c-13.3,0-24-10.7-24-24V13.1z"/>
						</g>
					</mask>
					<path id="Straps" class="st18" d="M102,61.7V110h-7V58.2C97.2,59.5,99.5,60.7,102,61.7z M169,58.2v40.3c0,1.9-1.6,3.5-3.5,3.5
						s-3.5-1.6-3.5-3.5V61.7C164.5,60.7,166.8,59.5,169,58.2z"/>
					<defs>
						
							<filter id="Adobe_OpacityMaskFilter_00000042000456224611452910000008057825765707721610_" filterUnits="userSpaceOnUse" x="65.5" y="12.7" width="133" height="55.3">
							<feColorMatrix  type="matrix" values="1 0 0 0 0  0 1 0 0 0  0 0 1 0 0  0 0 0 1 0"/>
						</filter>
					</defs>
					
						<mask maskUnits="userSpaceOnUse" x="65.5" y="12.7" width="133" height="55.3" id="react-mask-2_00000177454777116576670470000007679880951585795459_">
						<g style="filter:url(#Adobe_OpacityMaskFilter_00000042000456224611452910000008057825765707721610_);">
							<path id="react-path-1_00000176024196697615587440000008242760337903037314_" class="st2" d="M108,13.1
								c-17.9,2-31.7,7.5-32,21.6C50.1,45.6,32,71.2,32,101l0,0v9h200v-9c0-29.8-18.1-55.4-44-66.4c-0.3-14.1-14.1-19.6-32-21.6V32
								l0,0c0,13.3-10.7,24-24,24l0,0c-13.3,0-24-10.7-24-24V13.1z"/>
						</g>
					</mask>
					<path id="Shadow" class="st20" d="M91,12.7c-15.1,2.8-25.5,8.5-25.5,19.6C65.5,52,98.5,68,132,68s66.5-16,66.5-35.7
						c0-11.1-10.4-16.7-25.5-19.6c9.1,3.4,15,9,15,18.4c0,20.4-27.8,36.9-56,36.9S76,51.5,76,31.1C76,21.7,81.9,16.1,91,12.7z"/>
				</g>
				<g id="Face" transform="translate(76.000000, 82.000000)">
					<g id="Mouth_x2F_Smile" transform="translate(2.000000, 52.000000)">
						<g id="Mouth">
							<path id="react-path-3_00000008135540859844460820000008845108340410283174_" class="st21" d="M35.1,15.1
								C36.2,24.6,44.2,32,54,32c9.8,0,17.9-7.4,18.9-17c0.1-0.8-0.8-2-1.8-2c-14.9,0-26.3,0-34,0C36,13,35,14.2,35.1,15.1z"/>
						</g>
						<defs>
							
								<filter id="Adobe_OpacityMaskFilter_00000138537720585863966390000016396333349199942031_" filterUnits="userSpaceOnUse" x="39" y="2" width="31" height="16">
								<feColorMatrix  type="matrix" values="1 0 0 0 0  0 1 0 0 0  0 0 1 0 0  0 0 0 1 0"/>
							</filter>
						</defs>
						
							<mask maskUnits="userSpaceOnUse" x="39" y="2" width="31" height="16" id="react-mask-4_00000110468495151601850700000017054356060171645350_">
							<g style="filter:url(#Adobe_OpacityMaskFilter_00000138537720585863966390000016396333349199942031_);">
								<path id="react-path-3_00000109740429445099471190000008089331935966919308_" class="st2" d="M35.1,15.1
									C36.2,24.6,44.2,32,54,32c9.8,0,17.9-7.4,18.9-17c0.1-0.8-0.8-2-1.8-2c-14.9,0-26.3,0-34,0C36,13,35,14.2,35.1,15.1z"/>
							</g>
						</mask>
						<path id="Teeth" class="st23" d="M44,2h21c2.8,0,5,2.2,5,5v6c0,2.8-2.2,5-5,5H44c-2.8,0-5-2.2-5-5V7C39,4.2,41.2,2,44,2z"/>
						<defs>
							
								<filter id="Adobe_OpacityMaskFilter_00000044861203696989396720000002452342582145618863_" filterUnits="userSpaceOnUse" x="38" y="24" width="32" height="22">
								<feColorMatrix  type="matrix" values="1 0 0 0 0  0 1 0 0 0  0 0 1 0 0  0 0 0 1 0"/>
							</filter>
						</defs>
						
							<mask maskUnits="userSpaceOnUse" x="38" y="24" width="32" height="22" id="react-mask-4_00000159433249261665495580000002226976510096754096_">
							<g style="filter:url(#Adobe_OpacityMaskFilter_00000044861203696989396720000002452342582145618863_);">
								<path id="react-path-3_00000152968796226469566910000009111845513351908531_" class="st2" d="M35.1,15.1
									C36.2,24.6,44.2,32,54,32c9.8,0,17.9-7.4,18.9-17c0.1-0.8-0.8-2-1.8-2c-14.9,0-26.3,0-34,0C36,13,35,14.2,35.1,15.1z"/>
							</g>
						</mask>
						<g id="Tongue" class="st25">
							<g transform="translate(38.000000, 24.000000)">
								<circle class="st26" cx="11" cy="11" r="11"/>
								<circle class="st26" cx="21" cy="11" r="11"/>
							</g>
						</g>
					</g>
					<g id="Nose_x2F_Default" transform="translate(28.000000, 40.000000)">
						<path id="Nose" class="st27" d="M16,8c0,4.4,5.4,8,12,8l0,0c6.6,0,12-3.6,12-8"/>
					</g>
					<g id="Eyes_x2F_Default-_xD83D__xDE00_" transform="translate(0.000000, 8.000000)">
						<circle id="Eye" class="st28" cx="30" cy="22" r="6"/>
						<circle id="Eye_00000034072220207147010830000014583574184297491625_" class="st28" cx="82" cy="22" r="6"/>
					</g>
					<g id="Eyebrow_x2F_Natural_x2F_Raised-Excited-Natural">
						<path id="Eye-Browse-Reddit" class="st28" d="M22.8,1.6l0.9-0.4c5.2-2.1,13.2-1.2,18,1.1c0.6,0.3,0.2,1.2-0.4,1.1
							c-14.9-1.2-25,8.1-28.4,14.4c-0.1,0.2-0.4,0.2-0.5,0C10.2,12.6,16.9,3.9,22.8,1.6z"/>
						<path id="Eye-Browse-Reddit_00000181045275095696837920000010376497753815603606_" class="st28" d="M89.2,1.6l-0.9-0.4
							c-5.2-2.1-13.2-1.2-18,1.1c-0.6,0.3-0.2,1.2,0.4,1.1c14.9-1.2,25,8.1,28.4,14.4c0.1,0.2,0.4,0.2,0.5,0
							C101.8,12.6,95.1,3.9,89.2,1.6z"/>
					</g>
				</g>
				<g id="Top">
					<g id="Mask_00000103230992736126075660000012635992761788026753_">
					</g>
					<defs>
						
							<filter id="Adobe_OpacityMaskFilter_00000018958428211535777780000015233248435347007626_" filterUnits="userSpaceOnUse" x="-1" y="0" width="264" height="280">
							<feColorMatrix  type="matrix" values="1 0 0 0 0  0 1 0 0 0  0 0 1 0 0  0 0 0 1 0"/>
						</filter>
					</defs>
					
						<mask maskUnits="userSpaceOnUse" x="-1" y="0" width="264" height="280" id="react-mask-7_00000134936121772316213860000017267676598942702208_">
						<g style="filter:url(#Adobe_OpacityMaskFilter_00000018958428211535777780000015233248435347007626_);">
							<rect id="react-path-9_00000173162327602126089670000001724233539592796597_" class="st2" width="264" height="280"/>
						</g>
					</mask>
					<g id="Top_x2F_Short-Hair_x2F_Short-Flat" class="st30">
						<g transform="translate(-1.000000, 0.000000)">
							<g id="Short-Hair">
								<path id="react-path-8_00000121998459699781500060000015265239135040258994_" class="st31" d="M180.1,39.9
									c-2.8-2.8-6-5.2-9.1-7.6c-0.7-0.5-1.4-1-2.1-1.6c-0.2-0.1-1.7-1.2-1.9-1.7c-0.5-1-0.2-0.2-0.1-1.4c0.1-1.5,3.1-5.7,0.9-6.7
									c-1-0.4-2.8,0.7-3.8,1.1c-1.9,0.7-3.8,1.4-5.7,1.9c0.9-1.9,2.7-5.6-0.6-4.6c-2.6,0.8-5,2.8-7.6,3.7c0.9-1.4,4.3-5.8,1.2-6.1
									c-1-0.1-3.8,1.7-4.9,2.1c-3.1,1.2-6.3,1.9-9.6,2.5c-11.2,2-24.3,1.4-34.7,6.5c-8,3.9-15.9,10-20.5,17.8
									c-4.4,7.5-6.1,15.7-7,24.3c-0.7,6.3-0.7,12.8-0.4,19.1c0.1,2.1,0.3,11.6,3.3,8.7c1.5-1.4,1.5-7.3,1.9-9.2
									c0.8-3.9,1.5-7.8,2.7-11.6c2.2-6.7,4.8-13.8,10.3-18.4c3.5-3,6-6.9,9.4-9.9c1.5-1.3,0.4-1.2,2.8-1c1.6,0.1,3.3,0.2,4.9,0.2
									c3.8,0.1,7.6,0.1,11.4,0.1c7.6,0,15.3,0.1,22.9-0.3c3.4-0.2,6.8-0.3,10.2-0.6c1.9-0.2,5.2-1.4,6.8-0.5
									c1.4,0.8,2.9,3.6,3.9,4.7c2.4,2.7,5.3,4.7,8.1,6.9c5.9,4.6,8.9,10.3,10.7,17.5c1.8,7.1,1.3,13.7,3.5,20.8
									c0.4,1.2,1.4,3.4,2.7,1.5c0.2-0.4,0.2-2.3,0.2-3.4c0-4.5,1.1-7.9,1.1-12.5C190.9,68.5,190.5,50.5,180.1,39.9z"/>
							</g>
							<defs>
								
									<filter id="Adobe_OpacityMaskFilter_00000139256807409362806670000006214702525198861739_" filterUnits="userSpaceOnUse" x="0" y="0" width="264" height="280">
									<feColorMatrix  type="matrix" values="1 0 0 0 0  0 1 0 0 0  0 0 1 0 0  0 0 0 1 0"/>
								</filter>
							</defs>
							
								<mask maskUnits="userSpaceOnUse" x="0" y="0" width="264" height="280" id="react-mask-6_00000092444133504051909480000008723950350871959177_">
								<g style="filter:url(#Adobe_OpacityMaskFilter_00000139256807409362806670000006214702525198861739_);">
									<path id="react-path-8_00000085942551574480946260000013244123652504864942_" class="st2" d="M180.1,39.9
										c-2.8-2.8-6-5.2-9.1-7.6c-0.7-0.5-1.4-1-2.1-1.6c-0.2-0.1-1.7-1.2-1.9-1.7c-0.5-1-0.2-0.2-0.1-1.4c0.1-1.5,3.1-5.7,0.9-6.7
										c-1-0.4-2.8,0.7-3.8,1.1c-1.9,0.7-3.8,1.4-5.7,1.9c0.9-1.9,2.7-5.6-0.6-4.6c-2.6,0.8-5,2.8-7.6,3.7
										c0.9-1.4,4.3-5.8,1.2-6.1c-1-0.1-3.8,1.7-4.9,2.1c-3.1,1.2-6.3,1.9-9.6,2.5c-11.2,2-24.3,1.4-34.7,6.5
										c-8,3.9-15.9,10-20.5,17.8c-4.4,7.5-6.1,15.7-7,24.3c-0.7,6.3-0.7,12.8-0.4,19.1c0.1,2.1,0.3,11.6,3.3,8.7
										c1.5-1.4,1.5-7.3,1.9-9.2c0.8-3.9,1.5-7.8,2.7-11.6c2.2-6.7,4.8-13.8,10.3-18.4c3.5-3,6-6.9,9.4-9.9c1.5-1.3,0.4-1.2,2.8-1
										c1.6,0.1,3.3,0.2,4.9,0.2c3.8,0.1,7.6,0.1,11.4,0.1c7.6,0,15.3,0.1,22.9-0.3c3.4-0.2,6.8-0.3,10.2-0.6
										c1.9-0.2,5.2-1.4,6.8-0.5c1.4,0.8,2.9,3.6,3.9,4.7c2.4,2.7,5.3,4.7,8.1,6.9c5.9,4.6,8.9,10.3,10.7,17.5
										c1.8,7.1,1.3,13.7,3.5,20.8c0.4,1.2,1.4,3.4,2.7,1.5c0.2-0.4,0.2-2.3,0.2-3.4c0-4.5,1.1-7.9,1.1-12.5
										C190.9,68.5,190.5,50.5,180.1,39.9z"/>
								</g>
							</mask>
							<g id="Skin_x2F__xD83D__xDC76__xD83C__xDFFD_-03-Brown_00000038395048841651587330000000394114620192471189_" class="st33">
								<g id="Color_00000084517446582361277930000007069872974874642613_" transform="translate(0.000000, 0.000000) ">
									<rect class="st34" width="264" height="280"/>
								</g>
							</g>
						</g>
					</g>
				</g>
			</g>
		</g>
	</g>
</g>
</svg>
